<svg width="24" height="24" viewBox="0 0 24 24" fill="none" xmlns="http://www.w3.org/2000/svg">
<path fill-rule="evenodd" clip-rule="evenodd" d="M20.1818 2H3.81818C2.81403 2 2 2.89543 2 4V20C2 21.1046 2.81403 22 3.81818 22H5V23H7V22H17V23H19V22H20.1818C21.186 22 22 21.1046 22 20V4C22 2.89543 21.186 2 20.1818 2ZM4 20V4H20V6H19V8H20V16H19V18H20V20H4ZM17.7071 16.2929L16.2929 17.7071L14.032 15.4462C13.4365 15.7981 12.7418 16 12 16C11.2582 16 10.5635 15.7981 9.96803 15.4462L7.70711 17.7071L6.29289 16.2929L8.55382 14.032C8.20193 13.4365 8 12.7418 8 12C8 11.2582 8.20193 10.5635 8.55382 9.96803L6.29289 7.70711L7.70711 6.29289L9.96803 8.55382C10.5635 8.20193 11.2582 8 12 8C12.7418 8 13.4365 8.20193 14.032 8.55382L16.2929 6.29289L17.7071 7.70711L15.4462 9.96803C15.7981 10.5635 16 11.2582 16 12C16 12.7418 15.7981 13.4365 15.4462 14.032L17.7071 16.2929ZM14 12C14 13.1046 13.1046 14 12 14C10.8954 14 10 13.1046 10 12C10 10.8954 10.8954 10 12 10C13.1046 10 14 10.8954 14 12Z" fill="#F2F2F2"/>
</svg>
